<?xml version="1.0" encoding="utf-8"?>
<svg version="1.1" xmlns:xlink="http://www.w3.org/1999/xlink" width="25px" height="25px" xmlns="http://www.w3.org/2000/svg">
  <g transform="matrix(1 0 0 1 -842 -270 )">
    <path d="M 10.0718533203125 6.850842400536285  C 10.823422526041664 6.528741310356047  11.628675252278645 6.367690765265928  12.487611499023437 6.367690765265927  C 13.34654774576823 6.367690765265927  14.15180047200521 6.528741310356047  14.903369677734373 6.850842400536286  C 15.65493888346354 7.172943490716525  16.311529565429687 7.614800114633984  16.873141723632813 8.17641227228866  C 17.43475388183594 8.738024429943335  17.876610506184896 9.394615111268282  18.198711596679686 10.146184316263492  C 18.52081268717448 10.897753521258705  18.681863232421875 11.703006246709306  18.681863232421875 12.56194249261529  C 18.68186323242188 13.420878738521274  18.52081268717448 14.230260964293365  18.198711596679686 14.990089169931553  C 17.876610506184896 15.749917375569744  17.434753881835935 16.410637557216177  16.873141723632813 16.97224971487085  C 16.311529565429687 17.533861872525524  15.654938883463544 17.975718496442983  14.903369677734373 18.29781958662322  C 14.151800472005204 18.619920676803467  13.346547745768225 18.780971221893587  12.487611499023437 18.780971221893584  C 11.628675252278647 18.780971221893584  10.82342252604167 18.619920676803464  10.0718533203125 18.29781958662322  C 9.32028411458333 17.975718496442987  8.663693432617183 17.533861872525524  8.102081274414061 16.97224971487085  C 7.540469116210938 16.410637557216173  7.098612491861981 15.74991737556974  6.776511401367186 14.990089169931553  C 6.454410310872392 14.230260964293368  6.293359765624997 13.42087873852128  6.293359765624998 12.56194249261529  C 6.293359765625 11.7030062467093  6.4544103108723965 10.8977535212587  6.776511401367186 10.14618431626349  C 7.098612491861976 9.394615111268282  7.540469116210935 8.738024429943337  8.102081274414061 8.176412272288658  C 8.663693432617189 7.614800114633979  9.320284114583334 7.172943490716522  10.0718533203125 6.850842400536285  Z M 23.339940576171873 11.000991126952155  L 24.87611496582031 11.000991078124033  L 24.87611496582031 14.122893955934673  L 23.38949455566406 14.122893955934673  C 23.224314510091148 15.345226295235781  22.873306909179693 16.49322761247406  22.336471752929686 17.566897907649516  C 21.79963659667969 18.64056820282497  21.114139404296875 19.59448297240122  20.27998017578125 20.42864221637828  C 19.445820947265627 21.262801460355334  18.496035685221358 21.952428152390205  17.43062438964844 22.497522292482888  C 16.36521309407552 23.04261643257557  15.221341276041667 23.39775353346574  13.999008935546875 23.562933595153382  L 13.999008935546875 24.999999999999996  L 10.901883056640624 24.999999999999996  L 10.901883056640624 23.562933595153382  C 9.679550716145833 23.381235548455823  8.5398083984375 23.01370994660119  7.482656103515625 22.46035678958949  C 6.425503808593751 21.907003632577794  5.488107047526043 21.217376940542923  4.6704658203125 20.39147671348488  C 3.852824593098958 19.565576486426842  3.175586401367188 18.619920725631584  2.638751245117187 17.554509431099106  C 2.1019160888671875 16.489098136566632  1.7591674967447914 15.345226319649841  1.6105054687499996 14.122893980348733  L 0.02477702636718704 14.122893980348733  L 0.02477702636718704 11.00099110253809  L 1.6352824707031244 11.00099110253809  C 1.8169805175781244 9.81169476580889  2.180376619466146 8.700858959602023  2.725470776367187 7.6684836839174935  C 3.2705649332682287 6.636108408232966  3.95193262532552 5.715229649366635  4.769573852539062 4.905847407318506  C 5.587215079752604 4.096465165270376  6.5163528401692705 3.4274859748429467  7.556987133789061 2.8989098360362178  C 8.597621427408853 2.3703336972294897  9.712586743164062 2.015196596339324  10.901883081054686 1.8334985333657214  L 10.901883081054686 0.12388505847276603  L 13.999008959960937 0.12388505847276603  L 13.999008959960937 1.8087215314367928  C 15.204823299153647 1.9739015768484012  16.33217711588542 2.3249091774170787  17.381070410156248 2.8617443331428247  C 18.42996370442708 3.3985794888685716  19.367360465494794 4.071688179617488  20.193260693359374 4.881070405389577  C 21.01916092122396 5.690452631161666  21.704658113606772 6.615460890349483  22.249752270507813 7.656095182953029  C 22.794846427408853 8.696729475556575  23.158242529296874 9.811694790222953  23.339940576171873 11.000991126952155  Z M 9.452428149414063 19.734886015883895  C 10.402213452148438 20.139577096217863  11.413941235351562 20.341922652660884  12.487611499023437 20.341922685212964  C 13.561281795247398 20.341922685212964  14.573009578450522 20.139577128769943  15.522794848632811 19.734886015883895  C 16.472580118815106 19.330194902997853  17.298480346679685 18.772712245664668  18.000495532226562 18.062438043884338  C 18.70251071777344 17.352163842104005  19.259993375651046 16.522134106586456  19.672943505859376 15.57234883733169  C 20.08589363606771 14.622563568076922  20.29236869303385 13.610835785861811  20.292368676757814 12.53716549068636  C 20.292368660481774 11.463495195510912  20.085893603515633 10.451767413295801  19.672943505859376 9.501982144041033  C 19.259993408203123 8.552196874786265  18.70251075032552 7.726296647728226  18.000495532226562 7.024281462866912  C 17.298480314127605 6.322266278005599  16.472580086263022 5.764783620672412  15.522794848632811 5.3518334908673495  C 14.573009611002602 4.938883361062287  13.561281827799476 4.732408304297778  12.487611499023437 4.732408320573819  C 11.413941170247401 4.732408336849861  10.402213387044275 4.938883393614372  9.452428149414063 5.3518334908673495  C 8.502642911783854 5.764783588120328  7.672613175455728 6.322266245453514  6.962338940429688 7.024281462866912  C 6.25206470540365 7.726296680280309  5.694582047526046 8.552196907338349  5.289890966796876 9.501982144041033  C 4.885199886067706 10.451767380743718  4.682854329427082 11.463495162958825  4.682854296875001 12.53716549068636  C 4.682854264322919 13.610835818413896  4.885199820963545 14.622563600629002  5.289890966796876 15.57234883733169  C 5.694582112630207 16.522134074034373  6.252064770507812 17.352163809551925  6.962338940429688 18.062438043884338  C 7.672613110351565 18.77271227821675  8.502642846679692 19.330194935549937  9.452428149414063 19.734886015883895  Z " fill-rule="nonzero" fill="#1890ff" stroke="none" transform="matrix(1 0 0 1 842 270 )" />
  </g>
</svg>